<svg width="36" height="36" viewBox="0 0 36 36" fill="none" xmlns="http://www.w3.org/2000/svg">
<path d="M17.5258 0.0175781H17.6113L17.8108 0.30255L18.1527 0.758506L18.4092 1.07197L18.6942 1.35695L19.0931 1.67042L19.5206 1.98389L20.005 2.29735L20.7175 2.72481L21.2019 3.00979L21.8859 3.46574L22.2278 3.72222L22.6268 4.03568L22.9972 4.34915L23.3392 4.66262L24.0231 5.34656L24.2796 5.66003L24.3936 5.80251L24.5361 5.83101L29.1241 5.85951L29.1526 10.6185L29.5231 10.932L29.9506 11.3025L30.207 11.5589L30.2925 11.6159V11.6729L30.378 11.7014L30.5775 11.9294L30.8055 12.1574L31.062 12.4709L31.3754 12.8413L31.7459 13.3543L32.0309 13.7817L32.3728 14.3517L32.8573 15.1781L33.3417 15.8905L33.6267 16.261L33.9402 16.603L34.2251 16.8879L34.7096 17.2299L35.1086 17.4864L35.0801 17.6004L34.5671 17.9993L34.1966 18.2843L33.7407 18.7402L33.4842 19.0537L33.1423 19.5382L32.7718 20.1081L32.4013 20.7351L32.0879 21.248L31.7174 21.7894L31.4894 22.1029L31.1759 22.5019L30.834 22.9008L30.5775 23.1858L29.7511 24.0122L29.5231 24.2117L29.2381 24.4397L29.1241 24.4967V29.0847L24.5646 29.1132L24.2511 29.4552L23.9946 29.7687L23.6242 30.1391L23.4247 30.3671L23.0542 30.7091L22.6553 31.0795L22.2848 31.3645L21.8289 31.7065L21.2589 32.0769L20.4325 32.5614L19.7771 32.9604L19.3211 33.2738L18.9791 33.5303L18.6087 33.8438L18.2382 34.2142L17.8393 34.7557L17.6113 35.0691H17.4973L17.2123 34.6987L16.8703 34.2427L16.5284 33.8723L16.3004 33.6728L16.0154 33.4448L15.5025 33.0743L14.9895 32.7609L14.5336 32.4759L13.9921 32.1624L13.3937 31.7635L13.0802 31.5355L12.7383 31.279L12.2823 30.9086L11.8833 30.5381L11.6554 30.3386L11.3134 29.9966L11.1139 29.7687L10.8574 29.4837L10.5725 29.1132L5.84193 29.0847L5.81343 24.4397L5.58545 24.2687L5.24349 23.9552L4.87302 23.6133L4.58805 23.3283L4.38857 23.1003L4.1036 22.7868L3.87562 22.5019L3.44816 21.9319L3.1062 21.419L2.82122 20.963L2.39377 20.2221L2.0803 19.7376L1.85232 19.3957L1.59584 19.0537L1.36787 18.7687L1.11139 18.4838L0.797922 18.1988L0.284972 17.8283L0 17.6289L0.0284972 17.5149L0.427458 17.2299L0.826419 16.9164L1.16839 16.603L1.36787 16.4035L1.62434 16.09L1.90931 15.691L2.13729 15.3491L2.42226 14.8931L2.87822 14.1237L3.22018 13.5822L3.56215 13.0978L3.81863 12.7558L4.18909 12.2999L4.53106 11.9294L4.78753 11.6444L5.1295 11.3025L5.35747 11.103L5.64245 10.8465L5.81343 10.7325L5.84193 5.85951L5.92742 5.83101H10.4015L10.7149 5.80251L10.9999 5.48904L11.1994 5.26106L11.5129 4.9191L11.8548 4.57713L12.0828 4.37765L12.3963 4.09268L12.7667 3.80771L13.1942 3.49424L13.9636 2.98129L14.6476 2.58233L15.303 2.18337L15.8444 1.8129L16.2149 1.52793L16.5284 1.27146L16.8418 0.957986L17.1268 0.587522L17.3833 0.217059L17.5258 0.0175781ZM17.5828 2.72481L17.2123 3.03828L16.6709 3.43724L16.1009 3.80771L15.3315 4.26366L14.7046 4.63413L14.2486 4.9476L13.8781 5.23257L13.5647 5.48904L13.4222 5.60303V5.66003L13.3082 5.71702L12.5958 6.42945L12.3963 6.65743L12.0828 7.02789L11.8263 7.34136L11.6839 7.51234V7.56934H7.63725L7.60875 7.59784L7.58026 11.6729L7.46627 11.7299L7.1813 11.9579L6.72534 12.3284L6.29788 12.6988L5.72794 13.2688L5.47146 13.5822L5.27198 13.8102L4.95851 14.2377L4.67354 14.6651L4.30308 15.2921L3.84712 16.0615L3.56215 16.489L3.36267 16.7739L3.13469 17.0874L2.90671 17.3724L2.73573 17.6004L3.0492 17.9708L3.44816 18.5123L3.76163 18.9967L4.0751 19.5097L4.38857 20.0511L4.70204 20.5641L4.95851 20.9345L5.30048 21.3905L5.58545 21.704L5.78493 21.9319L6.52586 22.6729L6.75384 22.8723L7.06731 23.1288L7.43777 23.4423L7.58026 23.5563L7.60875 27.4319H11.5414L11.5984 27.5459L11.9973 28.0588L12.2253 28.3438L12.4818 28.6288L12.6813 28.8568L12.9947 29.1987L13.2227 29.3982L13.5077 29.6547L13.9066 29.9681L14.2771 30.2531L14.847 30.6236L15.588 31.051L16.2719 31.4785L16.6994 31.7635L17.1553 32.1054L17.5828 32.4474L17.6968 32.3904L18.0102 32.1339L18.5517 31.735L19.1216 31.3645L19.8341 30.937L20.233 30.7091L20.86 30.3101L21.6009 29.7402L21.9713 29.3982L22.1993 29.1987L22.6553 28.7428L22.8548 28.5148L23.1397 28.1728L23.4247 27.8024L23.6527 27.5174V27.4604L27.4428 27.4319L27.4713 23.6703L27.9843 23.2713L28.3832 22.9578L28.7252 22.6444L28.9532 22.4449L29.4091 21.9889L29.6086 21.761L29.9221 21.3905L30.321 20.849L30.6915 20.2791L31.1474 19.4812L31.5464 18.8542L31.8599 18.3983L32.1164 18.0563L32.3158 17.7998L32.4583 17.6289L32.4298 17.5149L32.2303 17.2869L31.8884 16.8309L31.3754 16.0615L31.0335 15.4916L30.6345 14.8076L30.2925 14.2947L29.9506 13.8387L29.7226 13.5538L29.4376 13.2403L29.2381 13.0123L28.7822 12.5564L28.4687 12.2999L28.2122 12.0719L27.7563 11.7299L27.4713 11.502L27.4428 7.59784L27.4143 7.56934L23.5387 7.54084L23.2822 7.19887L23.0542 6.9424L22.8263 6.65743L22.6268 6.45795L22.4273 6.22997L21.8859 5.68852L21.6579 5.48904L21.3159 5.20407L20.7745 4.80511L20.176 4.43465L19.5776 4.09268L18.9791 3.72222L18.5517 3.43724L18.0957 3.09528L17.7253 2.8103L17.6398 2.72481H17.5828Z" fill="url(#paint0_linear_100_349)"/>
<path d="M16.9272 9.33609H18.1526V9.39308L17.5827 9.50707L16.7277 9.79205L15.9013 10.191L15.3884 10.5045L14.9894 10.7894L14.6759 11.0459L14.2485 11.4449L14.0205 11.6729L13.821 11.9008L13.5076 12.2998L13.2511 12.6703L12.9946 13.0977L12.7666 13.5252L12.5387 14.0666L12.3107 14.7506L12.1682 15.3775L12.1112 15.6625L12.0257 16.6029V17.0303L12.1112 17.9138L12.2537 18.5977L12.4532 19.2531L12.7381 19.9655L13.0231 20.5355L13.0801 20.45L13.4221 19.7946L13.6215 19.4811L13.992 18.9681L14.391 18.5407L14.562 18.3412L14.7899 18.1417L15.1034 17.8568L15.4169 17.6288L15.9013 17.2868L16.4428 16.8879L16.8417 16.6029L17.2692 16.2894L17.3547 16.2609L17.5827 16.3749L17.9531 16.4034L18.1811 16.3464L18.3236 16.2609L18.4376 16.3179L18.979 16.6884L19.3495 16.9733L19.8339 17.3153L20.2614 17.6288L20.6319 17.9138L21.0593 18.2842L21.4868 18.7117L21.7433 19.0251L22.0852 19.4811L22.3417 19.9086L22.4842 20.1935V20.336H24.8779V20.5925L24.65 20.7635L24.308 20.9914L24.2795 21.0199L24.251 22.6443L24.422 22.5303L24.707 22.3023L24.9919 22.0458L25.1914 21.8464L25.5049 21.4474L25.5904 21.4189L25.5619 21.5614L25.2199 22.2168L24.9919 22.5588L24.707 22.9578L24.5075 23.2142L24.194 23.6132L23.852 24.0122L23.6241 24.2116L23.2821 24.5251L22.9401 24.7816L22.5412 25.0666L22.1137 25.323L21.4583 25.665L20.8598 25.9215L20.1759 26.1494L19.4635 26.3204L18.9505 26.4059L18.2381 26.4629H17.4117L16.6992 26.4059L15.9298 26.2634L15.1889 26.064L14.448 25.779L13.7355 25.437L13.1656 25.095L12.6811 24.7531L12.2252 24.3826L11.7407 23.9267L11.5413 23.7272L11.3418 23.4992L11.0568 23.1572L10.7433 22.7298L10.4014 22.1883L10.0024 21.4189L9.71743 20.678L9.54645 20.1365L9.37546 19.3386L9.31847 18.9966L9.26147 18.3982V17.3438L9.28997 17.2013L9.34697 16.5744L9.48945 15.862L9.74593 15.007L10.0309 14.3231L10.2589 13.8386L10.6008 13.2687L10.8573 12.8982L11.0283 12.6703L11.3418 12.2713L11.6267 11.9863L11.8262 11.7584L12.2537 11.3594L12.7096 10.9889L13.3081 10.59L13.7925 10.305L14.562 9.93453L15.1034 9.73505L15.8158 9.53557L16.3573 9.42158L16.9272 9.33609ZM21.8857 20.336V20.735L22.3132 20.9914L22.4557 21.0484L22.4842 23.6987H22.5697V20.9914L22.0282 20.621L21.9997 20.336H21.8857Z" fill="url(#paint1_linear_100_349)"/>
<path d="M22.8834 17.9994H24.2512L24.2797 18.0279V20.1936L24.2512 20.2221H22.8549V18.0564L22.8834 17.9994Z" fill="url(#paint2_linear_100_349)"/>
<path d="M22.9688 14.8362L24.1087 14.8647V17.0875H22.9403V14.8932L22.9688 14.8362Z" fill="url(#paint3_linear_100_349)"/>
<path d="M23.2538 8.85181H23.3678V9.13678L23.4533 9.30776L23.6243 9.42175H23.9377L23.9662 9.47875L23.8523 9.59273L23.5958 9.67823L23.6243 10.0487L23.6813 10.1627V10.4192L23.6243 10.5046V10.9606L23.7383 11.844L23.9377 13.5253L23.9662 14.0668H23.1113V13.6393L23.1683 13.2974L23.2253 12.7274L23.3393 11.844L23.3963 11.3026L23.4533 10.9321V10.5046L23.3678 10.3622V10.2197L23.4248 10.1627V9.64973L23.2253 9.47875L23.1113 9.22227L23.1398 9.02279L23.2538 8.85181Z" fill="url(#paint4_linear_100_349)"/>
<path d="M17.6398 12.6134H17.6968L17.6683 12.7559L17.5543 13.0123L17.5258 13.1548V13.5538L17.6398 13.8672L17.8962 14.1522L18.1812 14.2947L18.2952 14.3232H18.6942L18.8936 14.2662L18.8651 14.3802L18.6087 14.5512L18.2667 14.6652L18.0387 14.6937L18.0957 14.7792L18.0672 14.9501L18.2097 15.0926L18.1527 15.1781H18.0387L18.0957 15.2636V15.4061H18.0387L18.0672 15.5486L18.2952 16.0045L18.3522 16.09L18.3237 16.204L18.1527 16.261H17.7822L17.6398 16.204L17.6113 16.1755L17.6398 15.976L17.8392 15.5771V15.4061L17.8107 15.2636L17.8392 15.2066L17.7252 15.1211L17.7822 15.0071H17.8392L17.8107 14.7792L17.8392 14.6937L17.5543 14.5797L17.2978 14.3517L17.1268 14.0952L17.0128 13.7248L17.0413 13.3828L17.1553 13.0978L17.3263 12.8414L17.5543 12.6704L17.6398 12.6134Z" fill="url(#paint5_linear_100_349)"/>
<path d="M22.4275 17.2014H24.7073L24.7358 17.2299V17.4863L24.5933 17.6288L24.3084 17.8568L24.2514 17.9138H22.855L22.7125 17.7713L22.399 17.5148L22.3705 17.4578V17.2583L22.4275 17.2014Z" fill="url(#paint6_linear_100_349)"/>
<path d="M22.4846 14.1807H24.5933L24.6218 14.2947L24.5364 14.4657L24.1944 14.7507H22.912L22.5415 14.4372L22.4846 14.3802L22.4561 14.2377L22.4846 14.1807Z" fill="url(#paint7_linear_100_349)"/>
<path d="M18.4663 12.6989L18.5233 12.7273L18.5518 12.9553L18.6088 12.9838L18.8938 13.0123V13.0978L18.7228 13.2403L18.7798 13.5823L18.6373 13.5538L18.5233 13.4683L18.3523 13.4968L18.2384 13.5823H18.1529L18.2384 13.3258L18.2099 13.2118L18.0104 13.0693V13.0123H18.3523L18.4093 12.7558L18.4663 12.6989Z" fill="url(#paint8_linear_100_349)"/>
<path d="M23.567 8.90866H23.8234L23.8519 9.07964L23.9089 9.13664L23.7664 9.25063L23.6524 9.19363L23.567 9.10814V8.90866Z" fill="url(#paint9_linear_100_349)"/>
<defs>
<linearGradient id="paint0_linear_100_349" x1="11.5" y1="13.5" x2="61" y2="-11" gradientUnits="userSpaceOnUse">
<stop stop-color="#DBDBDB"/>
<stop offset="1" stop-color="#757575"/>
</linearGradient>
<linearGradient id="paint1_linear_100_349" x1="14.6101" y1="15.9238" x2="38.0661" y2="4.87317" gradientUnits="userSpaceOnUse">
<stop stop-color="#DBDBDB"/>
<stop offset="1" stop-color="#757575"/>
</linearGradient>
<linearGradient id="paint2_linear_100_349" x1="23.3216" y1="18.8543" x2="25.5946" y2="18.1343" gradientUnits="userSpaceOnUse">
<stop stop-color="#DBDBDB"/>
<stop offset="1" stop-color="#757575"/>
</linearGradient>
<linearGradient id="paint3_linear_100_349" x1="23.323" y1="15.7021" x2="25.2473" y2="15.2086" gradientUnits="userSpaceOnUse">
<stop stop-color="#DBDBDB"/>
<stop offset="1" stop-color="#757575"/>
</linearGradient>
<linearGradient id="paint4_linear_100_349" x1="23.3914" y1="10.8577" x2="24.8822" y2="10.737" gradientUnits="userSpaceOnUse">
<stop stop-color="#DBDBDB"/>
<stop offset="1" stop-color="#757575"/>
</linearGradient>
<linearGradient id="paint5_linear_100_349" x1="17.6289" y1="14.0164" x2="20.729" y2="13.2265" gradientUnits="userSpaceOnUse">
<stop stop-color="#DBDBDB"/>
<stop offset="1" stop-color="#757575"/>
</linearGradient>
<linearGradient id="paint6_linear_100_349" x1="23.1453" y1="17.4754" x2="24.27" y2="15.6302" gradientUnits="userSpaceOnUse">
<stop stop-color="#DBDBDB"/>
<stop offset="1" stop-color="#757575"/>
</linearGradient>
<linearGradient id="paint7_linear_100_349" x1="23.1655" y1="14.4" x2="24.0054" y2="12.8227" gradientUnits="userSpaceOnUse">
<stop stop-color="#DBDBDB"/>
<stop offset="1" stop-color="#757575"/>
</linearGradient>
<linearGradient id="paint8_linear_100_349" x1="18.2997" y1="13.0387" x2="19.5461" y2="12.4228" gradientUnits="userSpaceOnUse">
<stop stop-color="#DBDBDB"/>
<stop offset="1" stop-color="#757575"/>
</linearGradient>
<linearGradient id="paint9_linear_100_349" x1="23.679" y1="9.0402" x2="24.1614" y2="8.8018" gradientUnits="userSpaceOnUse">
<stop stop-color="#DBDBDB"/>
<stop offset="1" stop-color="#757575"/>
</linearGradient>
</defs>
</svg>
