<?xml version="1.0" encoding="UTF-8"?>
<svg id="Layer_1" xmlns="http://www.w3.org/2000/svg" version="1.1" viewBox="0 0 600 600">
  <!-- Generator: Adobe Illustrator 29.0.0, SVG Export Plug-In . SVG Version: 2.1.0 Build 186)  -->
  <defs>
    <style>
      .st0 {
        fill: #fff;
      }
    </style>
  </defs>
  <path class="st0" d="M455.97,22.72h-12.4V.86H156.33v21.85h-12.4V.86h-53.17v53.17h21.86v12.4h-21.86v468h21.86v12.4h-21.86v53.17h53.17v-21.85h12.4v21.85h287.24v-21.85h12.4v21.85h53.16v-53.17h-21.85v-12.4h21.85V66.43h-21.85v-12.4h21.85V.86h-53.16v21.85ZM455.97,32.17v12.4h-12.4v-12.4h12.4ZM477.83,44.58h-12.4v-12.4h12.4v12.4ZM465.43,556.29h12.4v12.4h-12.4v-12.4ZM455.97,524.98v21.85h-21.86v21.86H165.78v-21.86h-21.85v-21.85h-21.85V75.89h21.85v-21.85h21.85v-21.86h268.33v21.86h21.86v21.85h21.85v449.09h-21.85ZM122.08,556.29h12.4v12.4h-12.4v-12.4ZM134.47,44.58h-12.4v-12.4h12.4v12.4ZM165.78,10.32h268.33v12.4H165.78v-12.4ZM156.33,32.17v12.4h-12.4v-12.4h12.4ZM100.22,44.58V10.32h34.26v12.4h-21.85v21.86h-12.4ZM122.08,54.03h12.4v12.4h-12.4v-12.4ZM100.22,524.98V75.89h12.4v449.09h-12.4ZM122.08,534.43h12.4v12.4h-12.4v-12.4ZM134.47,590.54h-34.26v-34.26h12.4v21.86h21.85v12.4ZM143.93,568.69v-12.4h12.4v12.4h-12.4ZM434.11,590.54H165.78v-12.4h268.33v12.4ZM443.57,568.69v-12.4h12.4v12.4h-12.4ZM499.68,556.29v34.26h-34.25v-12.4h21.85v-21.86h12.4ZM477.83,546.83h-12.4v-12.4h12.4v12.4ZM499.68,75.89v449.09h-12.4V75.89h12.4ZM477.83,66.43h-12.4v-12.4h12.4v12.4ZM499.68,10.32v34.26h-12.4v-21.86h-21.85v-12.4h34.25Z"/>
  <rect class="st0" x="160" y="110" width="280" height="39.66"/>
  <rect class="st0" x="160" y="179.75" width="280" height="125.82"/>
  <rect class="st0" x="160" y="335.65" width="280" height="27.35"/>
  <ellipse class="st0" cx="299.5" cy="491.5" rx="117.5" ry="64.5"/>
  <path class="st0" d="M-723.03,22.72h-12.4V.86h-287.24v21.85h-12.4V.86h-53.17v53.17h21.86v12.4h-21.86v468h21.86v12.4h-21.86v53.17h53.17v-21.85h12.4v21.85h287.24v-21.85h12.4v21.85h53.16v-53.17h-21.85v-12.4h21.85V66.43h-21.85v-12.4h21.85V.86h-53.16v21.85ZM-723.03,32.17v12.4h-12.4v-12.4h12.4ZM-701.17,44.58h-12.4v-12.4h12.4v12.4ZM-713.57,556.29h12.4v12.4h-12.4v-12.4ZM-723.03,524.98v21.85h-21.86v21.86h-268.33v-21.86h-21.85v-21.85h-21.85V75.89h21.85v-21.85h21.85v-21.86h268.33v21.86h21.86v21.85h21.85v449.09h-21.85ZM-1056.92,556.29h12.4v12.4h-12.4v-12.4ZM-1044.53,44.58h-12.4v-12.4h12.4v12.4ZM-1013.22,10.32h268.33v12.4h-268.33v-12.4ZM-1022.67,32.17v12.4h-12.4v-12.4h12.4ZM-1078.78,44.58V10.32h34.26v12.4h-21.85v21.86h-12.4ZM-1056.92,54.03h12.4v12.4h-12.4v-12.4ZM-1078.78,524.98V75.89h12.4v449.09h-12.4ZM-1056.92,534.43h12.4v12.4h-12.4v-12.4ZM-1044.53,590.54h-34.26v-34.26h12.4v21.86h21.85v12.4ZM-1035.07,568.69v-12.4h12.4v12.4h-12.4ZM-744.89,590.54h-268.33v-12.4h268.33v12.4ZM-735.43,568.69v-12.4h12.4v12.4h-12.4ZM-679.32,556.29v34.26h-34.25v-12.4h21.85v-21.86h12.4ZM-701.17,546.83h-12.4v-12.4h12.4v12.4ZM-679.32,75.89v449.09h-12.4V75.89h12.4ZM-701.17,66.43h-12.4v-12.4h12.4v12.4ZM-679.32,10.32v34.26h-12.4v-21.86h-21.85v-12.4h34.25Z"/>
  <rect class="st0" x="-1019" y="110" width="280" height="39.66"/>
  <rect class="st0" x="-1019" y="179.75" width="280" height="125.82"/>
  <rect class="st0" x="-1019" y="335.65" width="280" height="27.35"/>
  <ellipse class="st0" cx="-879.5" cy="491.5" rx="117.5" ry="64.5"/>
</svg>