<svg width="36" height="36" viewBox="0 0 36 36" fill="none" xmlns="http://www.w3.org/2000/svg">
<path d="M17.5543 0L17.6683 0.113989L18.0672 0.655436L18.3237 0.968905L18.7797 1.42486L19.1786 1.73833L19.7486 2.13729L21.3159 3.0777L21.6579 3.30568L22.1423 3.64764L22.5413 3.96111L22.9118 4.27458L23.4817 4.78753L23.8237 5.1295L24.0231 5.35748L24.3651 5.75644V5.81343L29.0956 5.84193L29.1241 5.87042L29.1526 10.6295L29.4091 10.8289L29.6941 11.0854L29.9221 11.2849L30.3495 11.6839L30.606 11.9403L30.8055 12.1683L31.062 12.4533L31.3754 12.8522L31.7174 13.3082L32.0024 13.7357L32.2588 14.1631L32.7433 14.9895L33.1423 15.6165L33.4842 16.0724L33.7122 16.3574L34.0257 16.6994L34.3961 17.0128L34.8236 17.2978L35.1086 17.4973L35.0801 17.5828L34.5386 17.9817L34.2536 18.2097L33.9687 18.4662L33.7407 18.6942L33.3702 19.1786L33.0853 19.5776L32.7433 20.119L32.3728 20.746L32.0024 21.3444L31.6889 21.8004L31.4039 22.1708L31.0905 22.5698L30.834 22.8548L30.6345 23.0827L30.378 23.3677L29.9791 23.7667H29.9221V23.8237L29.6941 24.0231L29.2951 24.3651L29.1526 24.4791L29.1241 29.0387L29.0956 29.0672L24.5361 29.0956L24.1656 29.5231L23.9662 29.7511L23.7097 30.0361L23.0542 30.6915L22.8263 30.891L22.4558 31.2044L21.8859 31.6319L21.2874 32.0309L20.6035 32.4298L20.0335 32.7718L19.2641 33.2847L18.8936 33.5697L18.4947 33.9117L18.1812 34.2536L17.8677 34.6811L17.5828 35.0801L17.4973 35.0516L17.1268 34.5386L16.8988 34.2536L16.6424 33.9687L16.3574 33.6837L15.9584 33.3702L15.474 33.0283L14.9325 32.6863L14.3056 32.3158L13.7926 32.0024L13.2512 31.6319L12.6528 31.1759L12.3393 30.9195L11.9973 30.606L11.7693 30.4065L11.2279 29.8651L11.0284 29.6371L10.7149 29.2666L10.5725 29.0956L5.84193 29.0672L5.81343 24.4221L5.49996 24.1656L5.1295 23.8237L4.36007 23.0542L4.1036 22.7408L3.81863 22.3988L3.41966 21.8574L3.13469 21.4299L2.82122 20.917L2.33677 20.0905L1.82382 19.3211L1.56735 18.9791L1.31087 18.6657L0.883413 18.2382L0.427458 17.8962L0 17.6113L0.0569944 17.4973L0.740927 16.9843L1.16839 16.6139L1.45336 16.3004L1.82382 15.816L2.27978 15.132L2.53625 14.7046L2.99221 13.9351L3.39117 13.3367L3.67614 12.9377L3.98961 12.5388L4.30308 12.1683L4.70204 11.7408L5.30048 11.1424L5.52846 10.9429L5.81343 10.715L5.84193 5.87042L5.87042 5.84193L10.7149 5.81343L11.0284 5.44297L11.3704 5.0725L12.0543 4.38857L12.3678 4.1321L12.7383 3.81863L13.2512 3.44816L13.8496 3.0492L14.2771 2.79273L15.0465 2.33677L15.4455 2.0803L15.9014 1.76683L16.2719 1.48185L16.6139 1.16839L16.9273 0.854916L17.2978 0.341967L17.5258 0.0284972L17.5543 0ZM17.5543 2.70723L17.2693 2.96371L16.7279 3.36267L16.3004 3.64764L15.702 4.01811L14.961 4.44556L14.4196 4.78753L13.9351 5.15799L13.6502 5.38597L13.3082 5.69944L13.0802 5.89892L12.6813 6.29788L12.4818 6.52586L12.1113 6.95332L11.6554 7.52326L7.63725 7.55176L7.60875 7.58026L7.58026 11.5699L7.43777 11.7124L7.06731 12.0258L6.66835 12.3393L6.29788 12.6813L6.0699 12.8807L5.84193 13.1087L5.64245 13.3367L5.30048 13.7357L4.90152 14.2771L4.58805 14.7616L4.16059 15.5025L3.76163 16.1579L3.33417 16.7849L3.0492 17.1553L2.82122 17.4403L2.73573 17.5258L2.76423 17.6398L3.0777 18.0102L3.44816 18.5232L3.73313 18.9506L4.1036 19.5491L4.55955 20.347L4.84452 20.7745L5.0725 21.0879L5.38597 21.4869L5.67094 21.8004L5.87042 22.0283L6.44037 22.5983L6.75384 22.8548L7.03881 23.1112L7.32378 23.3392L7.58026 23.5672L7.60875 27.4143L11.5129 27.4428L11.7693 27.7563L12.1113 28.2122L12.4818 28.6397L12.8237 29.0102L13.1942 29.3806L13.5077 29.6371L13.8781 29.9506L14.3056 30.264L14.7331 30.549L15.5595 31.0335L16.1294 31.3754L16.5569 31.6604L17.0698 32.0309L17.5258 32.4013L17.6683 32.4298L17.9532 32.1733L18.4092 31.8314L19.0931 31.3754L19.6631 31.0335L20.4325 30.5775L20.9454 30.2355L21.5439 29.7796L21.9713 29.4091L22.3988 29.0102L22.7978 28.5827L23.0542 28.2692L23.3962 27.8418L23.6812 27.4713L23.7097 27.4428L27.4428 27.4143L27.4713 23.6812L27.6993 23.4817L28.0697 23.1967L28.4687 22.8833L28.8677 22.5128L29.0956 22.3133L29.3236 22.0853L29.5231 21.8574L29.8936 21.4299L30.15 21.0879L30.4065 20.7175L30.72 20.233L31.1474 19.4921L31.5179 18.8936L31.8314 18.4377L32.1733 17.9817L32.4013 17.6968L32.4868 17.5543L32.0879 17.0698L31.7459 16.5854L31.4609 16.1579L30.9765 15.36L30.663 14.8185L30.207 14.1346L29.9221 13.7642L29.6086 13.3937L29.4091 13.1657L29.0956 12.8237L28.8962 12.6243L28.6682 12.4248L28.2692 12.0828L27.8133 11.7408L27.4998 11.4844L27.4713 11.4559L27.4428 7.55176L23.5672 7.52326L23.3107 7.20979L22.9972 6.83933L22.7408 6.52586L22.2848 6.04141L21.9998 5.75644L21.7719 5.55696L21.3729 5.21499L20.8315 4.81603L20.29 4.47406L19.5491 4.0466L18.8652 3.61915L18.2952 3.22018L17.8962 2.90672L17.6398 2.70723H17.5543Z" fill="url(#paint0_linear_100_382)"/>
<path d="M17.5828 13.6502L17.7253 13.7072L18.2383 13.9922L18.9222 14.3912L19.6346 14.7901L20.3186 15.1891L22.3134 16.329L23.0543 16.7564L23.6527 17.0984L24.3937 17.5259L25.0776 17.9248L25.1061 17.9533V23.1683L24.8781 23.2538L22.0284 23.9377L19.5207 24.5362L18.1243 24.8781L17.7538 24.9636H17.4404L10.43 23.2823L10.1166 23.1968L10.0881 22.2279V18.0958L10.1451 17.9248L10.829 17.5259L11.6269 17.0699L12.3679 16.6424L13.1658 16.1865L13.9067 15.759L15.5025 14.8471L16.2435 14.4197L17.0414 13.9637L17.5828 13.6502Z" fill="url(#paint1_linear_100_382)"/>
<path d="M17.583 10.145L17.7824 10.2305L18.5234 10.6579L19.3213 11.1139L20.0622 11.5413L21.6581 12.4532L22.399 12.8807L23.9948 13.7926L24.6788 14.1916L25.1062 14.448V16.5283L24.9637 16.4713L24.3368 16.1009L22.855 15.246L21.4871 14.448L20.7462 14.0206L20.0622 13.6216L19.3213 13.1942L18.6374 12.7952L17.8964 12.3677L17.6685 12.2253L17.526 12.2538L17.013 12.5387L16.3291 12.9377L15.5882 13.3651L14.9042 13.7641L14.1633 14.1916L13.4794 14.5905L12.7384 15.018L12.0545 15.4169L10.5727 16.2719L10.1452 16.5283H10.1167V14.448L10.3447 14.3056L11.8265 13.4506L12.6245 12.9947L13.3084 12.5957L14.0208 12.1968L14.7048 11.7978L15.3602 11.4273L16.0441 11.0284L16.7565 10.6294L17.4405 10.2305L17.583 10.145Z" fill="url(#paint2_linear_100_382)"/>
<defs>
<linearGradient id="paint0_linear_100_382" x1="9" y1="18" x2="70" y2="-15.5" gradientUnits="userSpaceOnUse">
<stop stop-color="#DBDBDB"/>
<stop offset="1" stop-color="#757575"/>
</linearGradient>
<linearGradient id="paint1_linear_100_382" x1="13.9379" y1="19.4553" x2="36.1273" y2="3.29203" gradientUnits="userSpaceOnUse">
<stop stop-color="#DBDBDB"/>
<stop offset="1" stop-color="#757575"/>
</linearGradient>
<linearGradient id="paint2_linear_100_382" x1="13.9592" y1="13.4203" x2="26.7014" y2="-2.99852" gradientUnits="userSpaceOnUse">
<stop stop-color="#DBDBDB"/>
<stop offset="1" stop-color="#757575"/>
</linearGradient>
</defs>
</svg>
