<svg width="49" height="24" viewBox="0 0 49 24" fill="none" xmlns="http://www.w3.org/2000/svg">
<path d="M16.4037 1.50003L47.1997 1.5V22.5L16.4084 22.5C14.4535 22.4855 13.4499 21.6133 13.3167 20.7557L13.2882 20.5764C13.2168 20.5667 12.2465 20.7024 11.4522 19.9707C10.7245 19.2972 10.8909 18.5801 10.8767 18.5122C10.7958 18.488 9.83024 18.4832 9.19763 17.6449C8.9598 17.33 8.83613 16.9569 8.85516 16.5983V16.4287L8.65539 16.3948C7.64226 16.2204 6.70047 15.1156 6.78133 14.321L6.80036 14.1465C6.63388 14.0884 6.0203 14.1175 4.97387 13.2307C4.48871 12.8189 3.98453 12.4167 3.19971 12C3.98453 11.5833 4.48871 11.1811 4.97387 10.7693C6.0203 9.88742 6.63388 9.91649 6.80036 9.8535L6.78133 9.67907C6.71474 9.03948 7.36162 7.86205 8.85516 7.57132C8.86467 7.48895 8.75052 6.94142 9.19763 6.35028C9.53534 5.89481 10.0728 5.58955 10.6626 5.51203L10.8719 5.48295C10.8814 5.41996 10.7292 4.69315 11.4474 4.02933C11.8993 3.61263 12.5081 3.38974 13.2834 3.42366L13.312 3.24438C13.4452 2.38674 14.4535 1.51457 16.4037 1.50003Z" fill="#FBFBFB"/>
<path d="M16.4038 1.5C14.4538 1.51453 13.4453 2.38658 13.312 3.24414L13.2837 3.42383L13.0005 3.42285C12.3585 3.44848 11.8431 3.66478 11.4478 4.0293L11.3228 4.1543C10.7476 4.78136 10.8805 5.42434 10.8716 5.4834L10.6626 5.51172C10.0728 5.58924 9.53546 5.89512 9.19775 6.35059C8.75078 6.94165 8.86448 7.48888 8.85498 7.57129C7.36181 7.86202 6.71539 9.03907 6.78174 9.67871L6.80029 9.85352C6.63373 9.91647 6.0204 9.8878 4.97412 10.7695C4.48896 11.1814 3.98452 11.5833 3.19971 12C3.98453 12.4167 4.48896 12.8186 4.97412 13.2305C6.02039 14.117 6.63371 14.0884 6.80029 14.1465L6.78174 14.3213L6.77783 14.4736C6.81862 15.2504 7.70609 16.231 8.65576 16.3945L8.85498 16.4287V16.7334C8.86918 17.0492 8.98976 17.369 9.19775 17.6445C9.83022 18.4826 10.7952 18.4885 10.8765 18.5127C10.89 18.5829 10.7263 19.2985 11.4526 19.9707C12.2469 20.7021 13.2172 20.5665 13.2886 20.5762L13.3169 20.7559C13.4419 21.5599 14.3317 22.3764 16.0532 22.4873L16.4087 22.5H47.1997V1.5H16.4038ZM10.7183 19.499C10.7176 19.4989 10.716 19.4984 10.7134 19.498C10.7121 19.4979 10.7109 19.4972 10.7095 19.4971C10.7146 19.4979 10.7179 19.499 10.7183 19.499ZM48.1997 23.5H16.4009C14.5325 23.4861 13.0471 22.7405 12.5122 21.5352C12.5003 21.5333 12.4881 21.5323 12.4761 21.5303C11.9892 21.4487 11.3512 21.2368 10.7749 20.7061L10.7729 20.7051C10.2894 20.2576 10.0509 19.7682 9.94482 19.3379C9.94033 19.3364 9.93566 19.3355 9.93115 19.334C9.46426 19.18 8.87048 18.8706 8.3999 18.2471C8.17146 17.9445 8.00119 17.5939 7.91553 17.2197C7.3732 17.0059 6.90573 16.644 6.56006 16.2539C6.25315 15.9075 5.9602 15.4418 5.8374 14.9238C5.41721 14.7658 4.91311 14.4902 4.32764 13.9941L4.32666 13.9932C3.86678 13.6028 3.42522 13.2514 2.73096 12.8828L1.06689 12L2.73096 11.1172C3.42522 10.7486 3.86678 10.3972 4.32666 10.0068L4.32959 10.0049C4.91657 9.51021 5.42037 9.23534 5.83936 9.07812C5.94211 8.64198 6.16641 8.21503 6.46338 7.85645C6.81354 7.43371 7.29685 7.06208 7.90674 6.81543C7.97547 6.49235 8.11818 6.11958 8.3999 5.74707C8.78788 5.22729 9.3351 4.85247 9.94287 4.6543C10.0501 4.22737 10.2885 3.73903 10.769 3.29492V3.29395C11.2513 2.8492 11.8406 2.57247 12.5063 2.46777C13.0412 1.26024 14.531 0.513964 16.396 0.5H48.1997V23.5Z" fill="#B9B9B9" stroke="#B9B9B9"/>
</svg>
