<svg width="256" height="29" viewBox="0 0 256 29" fill="none" xmlns="http://www.w3.org/2000/svg">
<g clip-path="url(#clip0_223_198)">
<path d="M8.47461 20.1875L8.05664 20.1182L7.77539 20.0713H7.77637C7.19925 19.9738 6.60588 19.6047 6.16602 19.1182C5.71472 18.6189 5.51381 18.0986 5.5498 17.752L5.57715 17.5156L5.62109 17.1172L5.24219 16.9873C5.17302 16.9636 5.09885 16.9499 5.05273 16.9414C4.99245 16.9304 4.94819 16.9231 4.88184 16.9102C4.7619 16.8868 4.61089 16.8521 4.42578 16.7861C4.10278 16.6711 3.65328 16.4539 3.0791 16.0137L2.82617 15.8115C2.3027 15.3761 1.75363 14.9401 1.02441 14.4961C1.75293 14.0524 2.30214 13.6177 2.8252 13.1826C3.52156 12.6076 4.05585 12.3436 4.42578 12.2119C4.61143 12.1458 4.7633 12.1103 4.88477 12.0859C4.96306 12.0702 4.98563 12.067 5.05859 12.0527C5.10617 12.0434 5.18221 12.0285 5.25391 12.002L5.62012 11.8662L5.57715 11.4775L5.5498 11.2393H5.55078C5.52249 10.9723 5.6515 10.4763 6.07129 9.97949C6.47707 9.49936 7.12977 9.05214 8.06836 8.87305L8.42871 8.80469L8.47168 8.44043C8.47962 8.37262 8.47349 8.29681 8.47266 8.28223C8.47054 8.24508 8.46822 8.21121 8.4668 8.16895C8.46406 8.08757 8.465 7.98566 8.48047 7.86816C8.51097 7.63665 8.60035 7.32995 8.85352 7.00195L8.85645 6.99805C9.24466 6.48508 9.87692 6.12648 10.5859 6.03516L10.5889 6.03418L10.8838 5.99414L11.2539 5.94434L11.3105 5.5752C11.3202 5.51231 11.3167 5.45359 11.3164 5.44824C11.3155 5.429 11.3136 5.40607 11.3125 5.39062C11.31 5.3549 11.3076 5.31504 11.3066 5.26758C11.3048 5.17314 11.3093 5.04775 11.3379 4.90332C11.3938 4.62151 11.5441 4.24088 11.9619 3.8623L11.9629 3.86328C12.4889 3.38792 13.2126 3.11335 14.1924 3.15527L14.6367 3.1748L14.708 2.73633L14.748 2.48828V2.48633C14.8706 1.714 15.835 0.661186 18.1357 0.516602L18.6143 0.5H237.393L237.872 0.516602C240.177 0.661104 241.136 1.71364 241.259 2.48633V2.48828L241.299 2.73633L241.37 3.1748L241.814 3.15527C242.794 3.11332 243.518 3.38795 244.044 3.86328L244.045 3.86426C244.462 4.23946 244.613 4.61695 244.669 4.89844C244.698 5.04263 244.702 5.1682 244.7 5.26367C244.699 5.31157 244.697 5.35214 244.694 5.38867C244.693 5.4047 244.691 5.42858 244.69 5.44824C244.69 5.45711 244.687 5.511 244.695 5.56934L244.749 5.94336L245.123 5.99414L245.418 6.03418L245.422 6.03516C246.128 6.12626 246.756 6.48347 247.152 7C247.403 7.33165 247.492 7.64116 247.523 7.87402C247.539 7.99216 247.541 8.09431 247.539 8.1748C247.538 8.21641 247.535 8.25016 247.533 8.28613C247.533 8.29827 247.528 8.37601 247.536 8.44434L247.581 8.80664L247.939 8.87402C248.877 9.04989 249.53 9.4958 249.936 9.97656C250.354 10.4729 250.484 10.9696 250.457 11.2373L250.43 11.4775L250.386 11.876L250.765 12.0059C250.834 12.0295 250.908 12.0433 250.954 12.0518C251.014 12.0628 251.059 12.0701 251.125 12.083C251.245 12.1063 251.396 12.1411 251.581 12.207C251.95 12.3385 252.484 12.6041 253.181 13.1826L253.32 13.2979H253.337C253.818 13.694 254.331 14.0923 254.994 14.4961C254.508 14.7923 254.102 15.0857 253.73 15.377L253.194 15.8115C252.498 16.3893 251.965 16.6525 251.596 16.7832C251.411 16.8488 251.259 16.8834 251.138 16.9072C251.057 16.9231 251.038 16.9259 250.963 16.9404C250.915 16.9496 250.839 16.9644 250.767 16.9912L250.4 17.127L250.443 17.5156L250.47 17.752V17.7529C250.506 18.0995 250.306 18.619 249.854 19.1182C249.47 19.5439 248.967 19.8799 248.461 20.0225L248.243 20.0713L247.968 20.1182L247.552 20.1895V20.8457L247.553 20.8584C247.563 21.2282 247.431 21.6332 247.16 21.9854L247.159 21.9863C246.792 22.466 246.327 22.709 245.929 22.8369C245.73 22.9009 245.55 22.9349 245.411 22.9551C245.342 22.9652 245.283 22.9721 245.233 22.9775C245.211 22.98 245.184 22.9825 245.162 22.9854C245.151 22.9868 245.1 22.993 245.05 23.0078L244.738 23.0996L244.695 23.4219C244.688 23.48 244.691 23.533 244.691 23.543C244.692 23.5634 244.694 23.5872 244.695 23.6035C244.698 23.6407 244.701 23.6811 244.702 23.7285C244.705 23.8227 244.701 23.9457 244.674 24.0879C244.62 24.3646 244.471 24.7433 244.045 25.1299C243.575 25.5539 243.051 25.7296 242.623 25.7998C242.409 25.8348 242.222 25.8427 242.082 25.8428C242.012 25.8428 241.953 25.8416 241.906 25.8398C241.885 25.839 241.859 25.8374 241.839 25.8369C241.832 25.8367 241.779 25.8348 241.727 25.8418L241.358 25.8906L241.299 26.2568L241.259 26.5049V26.5068C241.128 27.3307 240.039 28.4738 237.393 28.4932H18.6211C15.9681 28.4738 14.8856 27.331 14.7549 26.5068V26.5049L14.7148 26.2568L14.6553 25.8906L14.2871 25.8418L14.1748 25.8369C14.1547 25.8374 14.1289 25.839 14.1074 25.8398C14.0604 25.8416 14.0017 25.8428 13.9316 25.8428C13.7913 25.8427 13.6042 25.8348 13.3906 25.7998C12.9627 25.7296 12.4385 25.5539 11.9688 25.1299C11.5442 24.7444 11.3962 24.3651 11.3428 24.0869C11.3153 23.9438 11.312 23.8191 11.3145 23.7236C11.3157 23.6751 11.3177 23.6352 11.3203 23.5957C11.3214 23.5785 11.3235 23.5536 11.3242 23.5303C11.3245 23.5212 11.328 23.455 11.3125 23.3828L11.25 23.0918L10.9639 23.0078C10.9141 22.9932 10.8642 22.9869 10.8525 22.9854C10.8305 22.9825 10.8039 22.9801 10.7812 22.9775C10.7322 22.972 10.6738 22.9654 10.6045 22.9551C10.4658 22.9345 10.2854 22.8994 10.0859 22.835C9.68685 22.706 9.22092 22.4624 8.85352 21.9854C8.58163 21.6325 8.4551 21.2324 8.47461 20.8721V20.1875Z" fill="#FBFBFB" stroke="#B9B9B9"/>
</g>
<defs>
<clipPath id="clip0_223_198">
<rect width="256" height="29" fill="white"/>
</clipPath>
</defs>
</svg>
